<svg xmlns="http://www.w3.org/2000/svg" width="666.374" height="81.8" viewBox="0 0 499.7804 61.349998"><path fill="#00b9b4" d="M159.954 0c5.95.09 11.89.07 17.83.02 5.81 13.82 11.25 27.8 16.87 41.7 5.74-13.83 11.17-27.79 16.81-41.66 5.96-.01 11.91-.03 17.86.02-.02 20.39-.04 40.78.01 61.17-4.47.06-8.94.01-13.41.07-.22-13.39.1-26.78-.17-40.16-5.67 13.29-10.93 26.76-16.43 40.12-3.45 0-6.89 0-10.34.02-5.74-13.24-10.64-26.84-16.62-39.97.04 9.63-.02 19.27.05 28.9-4.16.06-8.32.02-12.48.07-.12-16.76-.17-33.54.02-50.3zm75.53.08c7.81-.07 15.62.01 23.44-.05.2 20.42.16 40.85.01 61.27-4.28-.02-8.56-.03-12.84 0-.01-16.51-.01-33.03 0-49.54-3.53 0-7.06.01-10.58-.02-.02-3.88-.01-7.77-.03-11.66zm34.85-.02c4.97-.01 9.94-.03 14.91.02 9.42 12.86 18.96 25.61 28.37 38.47.04-12.82.04-25.64 0-38.46 4.38-.06 8.76-.01 13.15-.07.08 20.43.06 40.86 0 61.3-4.2-.06-8.41-.04-12.61-.03-10.25-13.6-20.16-27.47-30.59-40.93-.1 13.64-.02 27.29-.04 40.93-4.4-.01-8.8 0-13.19-.02.04-20.4.03-40.81 0-61.21zm62.24.03c15.39-.12 30.78.06 46.17-.09.01 4.15.95 8.64-1.15 12.47-7.13 16.25-14.14 32.54-21.21 48.81-4.58 0-9.16 0-13.73.01 6.98-16.8 14.58-33.34 21.7-50.09-10.6-.05-21.19.03-31.78-.04.03-3.69.03-7.38 0-11.07zm54.56-.05c15.53 0 31.06.05 46.59-.02.02 4.11.01 8.22.03 12.33-10.98-.04-21.96-.01-32.93-.01-.02 3.93-.01 7.87-.03 11.8 10.7.1 21.41 0 32.12.06v11.79c-10.71.05-21.41-.02-32.12.04.02 4.48 0 8.96.04 13.43 11.07 0 22.14 0 33.21.01.01 3.92-.01 7.84.04 11.76-15.65.14-31.29-.01-46.93.08-.04-8.45-.03-16.91-.01-25.36 4.53.03 9.07.02 13.61.02-.01-3.93-.02-7.86.01-11.79-4.55.05-9.09.02-13.63.04-.01-8.06-.01-16.12 0-24.18zm55.84-.04c8.95.15 17.9-.07 26.86.12 6.81.3 13.97 1.06 19.88 4.76 4.73 2.99 7.65 8.19 8.77 13.59 1 5.33 1.63 10.79 1.11 16.22-.56 5.29-1.19 10.82-4.09 15.43-2.31 3.99-6.23 6.83-10.51 8.4-5.47 2.04-11.35 2.61-17.14 2.71-8.3.13-16.6-.01-24.9.08-.18-3.95-.16-7.9-.13-11.85 8.69-.1 17.38.08 26.08-.1 4.44-.27 9.31-.82 12.79-3.89 3.43-3.25 3.95-8.35 4.06-12.81-.01-4.93.34-10.24-2.2-14.67-2.04-3.3-5.96-4.69-9.61-5.2-5.73-.8-11.54-.49-17.3-.54-.04 3.99-.02 7.98-.02 11.97-4.55-.01-9.1-.04-13.64.04-.28-8.08-.26-16.18-.01-24.26zM47.284 16.48c4.12-4.06 10.14-4.54 15.6-4.44 3.86.11 8 .97 10.83 3.77 3.36 3.35 4.42 8.28 4.64 12.85.22 5.59.08 11.63-3.08 16.47-2.33 3.48-6.41 5.31-10.49 5.63-5.65.45-12.14.3-16.46-3.92.16 4.83.06 9.67.09 14.51-2.21-.01-4.43-.01-6.64-.02-.07-16.05-.02-32.11-.02-48.16 1.8-.08 3.6-.17 5.41-.22l.12 3.53m7.06 2.78c-3.88 1.36-5.57 5.62-5.81 9.42-.24 4.18-.36 8.76 1.95 12.44 1.61 2.47 4.65 3.46 7.45 3.67 3.65.29 7.87.31 10.7-2.4 3.29-3.75 3.15-9.15 2.86-13.82-.18-3.98-2.03-8.36-6.11-9.65-3.58-.96-7.53-.87-11.04.34zm-44.02-6.05c4.7-1.41 9.75-1.53 14.55-.6 3.88.7 7.69 2.8 9.73 6.28 2.88 4.66 3.09 10.38 2.77 15.69-.24 4.31-1.51 8.82-4.61 11.96-3.13 3.1-7.65 4.2-11.92 4.47-4.67.25-9.6-.2-13.69-2.65-3.48-2.05-5.61-5.84-6.31-9.73-1.38-5.63-1.04-11.61.82-17.09 1.36-3.96 4.68-7.08 8.66-8.33m2.92 5.91c-2.78 1.02-4.9 3.49-5.67 6.33-1.18 4.3-1.14 8.95.26 13.2 1.02 3.07 3.8 5.5 7.01 6.02 4.24.8 9.28.63 12.64-2.42 2.93-3.05 3.33-7.6 3.26-11.62-.18-3.79-1.02-8.14-4.37-10.43-3.85-2.44-8.9-2.32-13.13-1.08zm73.06-3.11c3.94-3.49 9.5-4.1 14.56-3.97 4.29.15 9.04 1.34 11.62 5.07 3.46 4.96 3.02 11.28 3.02 17.02-9.36-.04-18.73-.06-28.09.01.53 3.69 1.4 8.12 5.19 9.82 6.24 2.72 13.75 1.52 19.31-2.23 1.16 1.58 2.34 3.14 3.51 4.71-6.79 4.77-15.69 5.71-23.6 3.62-3.8-1.07-7.28-3.69-8.8-7.41-1.96-4.76-2.23-10.05-1.74-15.12.54-4.18 1.68-8.67 5.02-11.52m4.45 4.5c-2.22 1.96-2.63 5.04-3.34 7.74 7.31.24 14.62.08 21.94.09-.45-2.91-.31-6.35-2.72-8.46-1.78-1.72-4.41-1.96-6.76-2.06-3.19-.04-6.72.35-9.12 2.69zm29.09-7.31c1.81-.1 3.62-.19 5.44-.27.11.77.34 2.32.45 3.09 4.42-3.81 10.53-4.2 16.09-3.93 3.25.25 6.79 1.07 8.91 3.76 2.33 3.04 2.57 7.09 2.65 10.78.06 7.88-.03 15.76.04 23.64-2.25-.02-4.5-.01-6.74-.06.04-7.19.01-14.39.02-21.58-.06-2.73.12-5.81-1.85-7.99-2.13-1.97-5.21-2.25-7.97-2.18-2.91.12-6.17.73-8.12 3.12-1.89 2.21-1.99 5.29-2.1 8.06-.03 6.88.02 13.75-.01 20.63-2.23 0-4.47.01-6.7.05-.15-12.38.05-24.75-.11-37.12z"/></svg>